<svg width="14" height="14" viewBox="0 0 14 14" fill="none" xmlns="http://www.w3.org/2000/svg">
    <path fill-rule="evenodd" clip-rule="evenodd" d="M0 1C0 0.447715 0.447715 0 1 0H5C5.55228 0 6 0.447715 6 1V5C6 5.55228 5.55228 6 5 6H1C0.447715 6 0 5.55228 0 5V1ZM2 2H4V4H2V2ZM0 9C0 8.44772 0.447715 8 1 8H5C5.55228 8 6 8.44772 6 9V13C6 13.5523 5.55228 14 5 14H1C0.447715 14 0 13.5523 0 13V9ZM2 10H4V12H2V10ZM9 0C8.44772 0 8 0.447715 8 1V5C8 5.55228 8.44772 6 9 6H13C13.5523 6 14 5.55228 14 5V1C14 0.447715 13.5523 0 13 0H9ZM12 2H10V4H12V2ZM8 9C8 8.44772 8.44772 8 9 8H13C13.5523 8 14 8.44772 14 9V13C14 13.5523 13.5523 14 13 14H9C8.44772 14 8 13.5523 8 13V9ZM10 10H12V12H10V10Z" fill="currentColor"></path>
</svg>
